<svg width="24" height="24" viewBox="0 0 22 18" fill="none" xmlns="http://www.w3.org/2000/svg">
    <path d="M0 1.28571C0 0.944722 0.115892 0.617695 0.322183 0.376577C0.528472 0.135459 0.808262 0 1.1 0H20.9C21.1917 0 21.4715 0.135459 21.6778 0.376577C21.8841 0.617695 22 0.944722 22 1.28571C22 1.62671 21.8841 1.95373 21.6778 2.19485C21.4715 2.43597 21.1917 2.57143 20.9 2.57143H1.1C0.808262 2.57143 0.528472 2.43597 0.322183 2.19485C0.115892 1.95373 0 1.62671 0 1.28571ZM0 16.7143C0 16.3733 0.115892 16.0463 0.322183 15.8051C0.528472 15.564 0.808262 15.4286 1.1 15.4286H20.9C21.1917 15.4286 21.4715 15.564 21.6778 15.8051C21.8841 16.0463 22 16.3733 22 16.7143C22 17.0553 21.8841 17.3823 21.6778 17.6234C21.4715 17.8645 21.1917 18 20.9 18H1.1C0.808262 18 0.528472 17.8645 0.322183 17.6234C0.115892 17.3823 0 17.0553 0 16.7143ZM1.1 7.71429C0.808262 7.71429 0.528472 7.84974 0.322183 8.09086C0.115892 8.33198 0 8.65901 0 9C0 9.34099 0.115892 9.66802 0.322183 9.90914C0.528472 10.1503 0.808262 10.2857 1.1 10.2857H20.9C21.1917 10.2857 21.4715 10.1503 21.6778 9.90914C21.8841 9.66802 22 9.34099 22 9C22 8.65901 21.8841 8.33198 21.6778 8.09086C21.4715 7.84974 21.1917 7.71429 20.9 7.71429H1.1Z" fill="white"/>
</svg>