<svg width="15" height="16" viewBox="0 0 15 16" fill="none" xmlns="http://www.w3.org/2000/svg">
    <path
        d="M6.79176 0.5C6.94279 0.500006 7.08871 0.554702 7.20254 0.653972C7.31636 0.753243 7.39039 0.890372 7.41093 1.04L7.41676 1.125L7.4176 7.16667H13.4618C13.6201 7.16671 13.7725 7.22687 13.8883 7.33498C14.004 7.44308 14.0743 7.59108 14.0851 7.74907C14.0959 7.90705 14.0463 8.06324 13.9464 8.18608C13.8465 8.30892 13.7036 8.38925 13.5468 8.41083L13.4618 8.41667H7.4176L7.41926 14.4583C7.419 14.6166 7.3587 14.7689 7.25053 14.8845C7.14235 15 6.99437 15.0702 6.83645 15.0809C6.67853 15.0916 6.52243 15.0419 6.39968 14.942C6.27693 14.8421 6.19667 14.6993 6.1751 14.5425L6.16926 14.4575L6.1676 8.41667H0.126763C-0.0315902 8.41662 -0.184021 8.35646 -0.29973 8.24835C-0.415439 8.14025 -0.485799 7.99225 -0.496592 7.83427C-0.507386 7.67628 -0.457808 7.52009 -0.357877 7.39725C-0.257946 7.27441 -0.115112 7.19408 0.0417627 7.1725L0.126763 7.16667H6.16843L6.16676 1.125C6.16676 0.95924 6.23261 0.800268 6.34982 0.683058C6.46703 0.565848 6.626 0.5 6.79176 0.5Z"
        fill="white" />
</svg>