<svg width="22" height="21" viewBox="0 0 22 21" fill="none" xmlns="http://www.w3.org/2000/svg">
<path d="M16.2105 2.1C15.9034 2.1 15.6089 1.98938 15.3918 1.79246C15.1746 1.59555 15.0526 1.32848 15.0526 1.05C15.0526 0.771523 15.1746 0.504451 15.3918 0.307538C15.6089 0.110625 15.9034 0 16.2105 0H20.8421C21.1492 0 21.4437 0.110625 21.6609 0.307538C21.878 0.504451 22 0.771523 22 1.05V5.25C22 5.52848 21.878 5.79555 21.6609 5.99246C21.4437 6.18938 21.1492 6.3 20.8421 6.3C20.535 6.3 20.2405 6.18938 20.0233 5.99246C19.8062 5.79555 19.6842 5.52848 19.6842 5.25V3.5847L12.9765 9.66735C12.7594 9.86419 12.4649 9.97478 12.1579 9.97478C11.8509 9.97478 11.5564 9.86419 11.3393 9.66735L8.10526 6.7347L1.97653 12.2923C1.75814 12.4836 1.46566 12.5894 1.16206 12.5871C0.858465 12.5847 0.568051 12.4742 0.353368 12.2796C0.138685 12.0849 0.0169104 11.8215 0.0142722 11.5462C0.011634 11.2709 0.128343 11.0057 0.339263 10.8076L7.28663 4.50765C7.50377 4.31081 7.79823 4.20022 8.10526 4.20022C8.4123 4.20022 8.70676 4.31081 8.92389 4.50765L12.1579 7.4403L18.0469 2.1H16.2105ZM2.31579 16.8V19.95C2.31579 20.2285 2.1938 20.4956 1.97665 20.6925C1.7595 20.8894 1.46499 21 1.15789 21C0.850802 21 0.556287 20.8894 0.339139 20.6925C0.121992 20.4956 0 20.2285 0 19.95V16.8C0 16.5215 0.121992 16.2544 0.339139 16.0575C0.556287 15.8606 0.850802 15.75 1.15789 15.75C1.46499 15.75 1.7595 15.8606 1.97665 16.0575C2.1938 16.2544 2.31579 16.5215 2.31579 16.8ZM8.10526 12.6C8.10526 12.3215 7.98327 12.0545 7.76612 11.8575C7.54898 11.6606 7.25446 11.55 6.94737 11.55C6.64028 11.55 6.34576 11.6606 6.12861 11.8575C5.91147 12.0545 5.78947 12.3215 5.78947 12.6V19.95C5.78947 20.2285 5.91147 20.4956 6.12861 20.6925C6.34576 20.8894 6.64028 21 6.94737 21C7.25446 21 7.54898 20.8894 7.76612 20.6925C7.98327 20.4956 8.10526 20.2285 8.10526 19.95V12.6ZM12.7368 13.65C13.0439 13.65 13.3384 13.7606 13.5556 13.9575C13.7727 14.1545 13.8947 14.4215 13.8947 14.7V19.95C13.8947 20.2285 13.7727 20.4956 13.5556 20.6925C13.3384 20.8894 13.0439 21 12.7368 21C12.4297 21 12.1352 20.8894 11.9181 20.6925C11.7009 20.4956 11.5789 20.2285 11.5789 19.95V14.7C11.5789 14.4215 11.7009 14.1545 11.9181 13.9575C12.1352 13.7606 12.4297 13.65 12.7368 13.65ZM19.6842 9.45C19.6842 9.17152 19.5622 8.90445 19.3451 8.70754C19.1279 8.51063 18.8334 8.4 18.5263 8.4C18.2192 8.4 17.9247 8.51063 17.7076 8.70754C17.4904 8.90445 17.3684 9.17152 17.3684 9.45V19.95C17.3684 20.2285 17.4904 20.4956 17.7076 20.6925C17.9247 20.8894 18.2192 21 18.5263 21C18.8334 21 19.1279 20.8894 19.3451 20.6925C19.5622 20.4956 19.6842 20.2285 19.6842 19.95V9.45Z" fill="white"/>
</svg>